<svg width="292" height="73" viewBox="0 0 292 73" fill="none" xmlns="http://www.w3.org/2000/svg">
<g opacity="0.6">
<path d="M97.5781 7.28389H104.232C105.55 7.28389 106.53 7.34067 107.174 7.45422C107.825 7.5602 108.404 7.78732 108.911 8.13555C109.426 8.48379 109.853 8.94936 110.194 9.53228C110.535 10.1076 110.705 10.7549 110.705 11.4741C110.705 12.2538 110.493 12.9692 110.069 13.6203C109.653 14.2713 109.085 14.7596 108.366 15.0851C109.38 15.3804 110.16 15.8838 110.705 16.5954C111.25 17.307 111.523 18.1435 111.523 19.105C111.523 19.862 111.345 20.6001 110.989 21.3193C110.641 22.0309 110.16 22.6025 109.547 23.034C108.941 23.4579 108.192 23.7191 107.298 23.8175C106.738 23.8781 105.387 23.9159 103.245 23.9311H97.5781V7.28389ZM100.939 10.0546V13.9041H103.142C104.452 13.9041 105.266 13.8852 105.584 13.8474C106.159 13.7792 106.61 13.5824 106.935 13.2569C107.268 12.9238 107.435 12.4885 107.435 11.951C107.435 11.4362 107.291 11.0198 107.003 10.7019C106.723 10.3764 106.303 10.1795 105.743 10.1114C105.41 10.0736 104.452 10.0546 102.87 10.0546H100.939ZM100.939 16.6749V21.1262H104.051C105.262 21.1262 106.03 21.0922 106.356 21.024C106.856 20.9332 107.261 20.7137 107.571 20.3654C107.889 20.0096 108.048 19.5365 108.048 18.946C108.048 18.4463 107.927 18.0224 107.685 17.6742C107.442 17.3259 107.09 17.0723 106.628 16.9134C106.174 16.7544 105.183 16.6749 103.653 16.6749H100.939Z" fill="white"/>
<path d="M112.861 23.9311V7.28389H125.205V10.1001H116.223V13.7906H124.58V16.5954H116.223V21.1262H125.523V23.9311H112.861Z" fill="white"/>
<path d="M126.01 18.5145L129.28 18.1965C129.477 19.2942 129.874 20.1005 130.472 20.6153C131.078 21.13 131.892 21.3874 132.914 21.3874C133.996 21.3874 134.81 21.1603 135.355 20.7061C135.908 20.2443 136.184 19.7068 136.184 19.0936C136.184 18.7 136.067 18.3669 135.832 18.0943C135.605 17.8142 135.204 17.572 134.628 17.3676C134.235 17.2313 133.338 16.9891 131.937 16.6408C130.135 16.1942 128.871 15.6453 128.144 14.9943C127.122 14.0783 126.611 12.9616 126.611 11.6444C126.611 10.7965 126.85 10.0054 127.327 9.2711C127.811 8.52921 128.504 7.96522 129.405 7.57913C130.313 7.19304 131.407 7 132.687 7C134.776 7 136.347 7.45801 137.399 8.37402C138.459 9.29003 139.015 10.5126 139.068 12.0418L135.707 12.1895C135.563 11.334 135.253 10.7208 134.776 10.3499C134.307 9.97136 133.599 9.7821 132.653 9.7821C131.676 9.7821 130.911 9.98271 130.359 10.3839C130.003 10.6413 129.825 10.9858 129.825 11.4173C129.825 11.8109 129.992 12.1478 130.325 12.4279C130.749 12.7837 131.778 13.1547 133.413 13.5408C135.049 13.9269 136.256 14.3281 137.036 14.7445C137.823 15.1533 138.436 15.7172 138.875 16.4364C139.322 17.148 139.545 18.03 139.545 19.0823C139.545 20.0361 139.28 20.9294 138.75 21.7622C138.221 22.5949 137.471 23.2157 136.502 23.6245C135.533 24.0257 134.326 24.2263 132.88 24.2263C130.775 24.2263 129.159 23.7418 128.031 22.7728C126.903 21.7962 126.229 20.3768 126.01 18.5145Z" fill="white"/>
<path d="M144.609 23.9311V10.1001H139.669V7.28389H152.898V10.1001H147.97V23.9311H144.609Z" fill="white"/>
<path d="M97 40.0484C97 37.2853 97.7419 35.1239 99.2257 33.5645C100.709 31.9974 102.625 31.2139 104.972 31.2139C106.508 31.2139 107.894 31.581 109.128 32.3154C110.362 33.0497 111.3 34.0755 111.944 35.3927C112.595 36.7024 112.92 38.1899 112.92 39.8554C112.92 41.5436 112.58 43.0539 111.898 44.3863C111.217 45.7186 110.252 46.7293 109.003 47.4182C107.754 48.0995 106.406 48.4402 104.96 48.4402C103.393 48.4402 101.993 48.0617 100.759 47.3046C99.5247 46.5476 98.5898 45.5142 97.9539 44.2046C97.318 42.8949 97 41.5095 97 40.0484ZM99.2711 40.0825C99.2711 42.0887 99.8086 43.6709 100.884 44.8291C101.966 45.9798 103.321 46.5552 104.949 46.5552C106.607 46.5552 107.969 45.9722 109.037 44.8064C110.112 43.6406 110.649 41.9865 110.649 39.8441C110.649 38.489 110.418 37.308 109.957 36.3011C109.502 35.2867 108.832 34.5032 107.947 33.9505C107.069 33.3903 106.081 33.1102 104.983 33.1102C103.423 33.1102 102.08 33.6477 100.952 34.7227C99.8313 35.7901 99.2711 37.5767 99.2711 40.0825Z" fill="white"/>
<path d="M114.024 48.1563V31.5091H125.254V33.4736H116.227V38.629H124.039V40.5935H116.227V48.1563H114.024Z" fill="white"/>
<path d="M126.38 48.1563V31.5091H137.611V33.4736H128.583V38.629H136.396V40.5935H128.583V48.1563H126.38Z" fill="white"/>
<path d="M138.998 48.1563V31.5091H141.201V48.1563H138.998Z" fill="white"/>
<path d="M155.113 42.3196L157.316 42.876C156.855 44.6853 156.022 46.0669 154.818 47.0207C153.622 47.967 152.157 48.4402 150.424 48.4402C148.629 48.4402 147.168 48.0768 146.04 47.35C144.92 46.6157 144.064 45.5559 143.474 44.1705C142.891 42.7851 142.6 41.2976 142.6 39.7078C142.6 37.9742 142.929 36.4639 143.588 35.1769C144.254 33.8824 145.196 32.9021 146.415 32.2359C147.641 31.5621 148.989 31.2252 150.458 31.2252C152.123 31.2252 153.524 31.6492 154.659 32.497C155.795 33.3449 156.586 34.5372 157.032 36.074L154.864 36.585C154.477 35.3738 153.917 34.4918 153.183 33.9392C152.449 33.3866 151.525 33.1102 150.412 33.1102C149.133 33.1102 148.062 33.4168 147.199 34.03C146.343 34.6432 145.741 35.4684 145.393 36.5055C145.045 37.5351 144.871 38.5987 144.871 39.6964C144.871 41.1121 145.075 42.3498 145.484 43.4097C145.9 44.462 146.544 45.2493 147.414 45.7716C148.285 46.294 149.227 46.5552 150.242 46.5552C151.476 46.5552 152.521 46.1993 153.376 45.4877C154.231 44.7761 154.811 43.7201 155.113 42.3196Z" fill="white"/>
<path d="M158.227 48.1563V31.5091H170.263V33.4736H160.43V38.5722H169.639V40.5254H160.43V46.1918H170.65V48.1563H158.227Z" fill="white"/>
<path d="M98.7544 69.5594L104.082 55.6868H106.06L111.738 69.5594H109.646L108.028 65.3579H102.227L100.704 69.5594H98.7544ZM102.757 63.8627H107.46L106.012 60.0208C105.571 58.8537 105.243 57.8948 105.028 57.1441C104.852 58.0336 104.602 58.9168 104.281 59.7937L102.757 63.8627Z" fill="white"/>
<path d="M114.423 69.5594L110.742 55.6868H112.625L114.735 64.7806C114.962 65.7332 115.158 66.6795 115.322 67.6195C115.675 66.137 115.884 65.2822 115.947 65.0551L118.587 55.6868H120.801L122.788 62.7083C123.287 64.4494 123.646 66.0865 123.867 67.6195C124.044 66.7426 124.274 65.7364 124.558 64.6008L126.734 55.6868H128.58L124.776 69.5594H123.006L120.082 58.9893C119.836 58.1061 119.691 57.5636 119.647 57.3617C119.502 57.9989 119.366 58.5414 119.24 58.9893L116.297 69.5594H114.423Z" fill="white"/>
<path d="M127.575 69.5594L132.902 55.6868H134.88L140.558 69.5594H138.466L136.848 65.3579H131.048L129.524 69.5594H127.575ZM131.577 63.8627H136.281L134.833 60.0208C134.391 58.8537 134.063 57.8948 133.849 57.1441C133.672 58.0336 133.423 58.9168 133.101 59.7937L131.577 63.8627Z" fill="white"/>
<path d="M141.568 69.5594V55.6868H147.719C148.956 55.6868 149.896 55.8129 150.539 56.0653C151.183 56.3113 151.697 56.7498 152.082 57.3806C152.467 58.0115 152.659 58.7086 152.659 59.4719C152.659 60.4561 152.34 61.2857 151.703 61.9607C151.066 62.6357 150.082 63.0647 148.751 63.2476C149.237 63.4811 149.606 63.7113 149.858 63.9384C150.394 64.4305 150.902 65.0456 151.381 65.7837L153.795 69.5594H151.486L149.65 66.6732C149.114 65.8405 148.672 65.2033 148.325 64.7617C147.978 64.3201 147.666 64.011 147.388 63.8343C147.117 63.6577 146.839 63.5347 146.555 63.4653C146.347 63.4211 146.007 63.399 145.533 63.399H143.404V69.5594H141.568ZM143.404 61.8093H147.35C148.189 61.8093 148.845 61.7241 149.319 61.5538C149.792 61.3771 150.151 61.0996 150.397 60.721C150.643 60.3362 150.766 59.9198 150.766 59.4719C150.766 58.8158 150.527 58.2765 150.047 57.8538C149.574 57.4311 148.823 57.2198 147.795 57.2198H143.404V61.8093Z" fill="white"/>
<path d="M155.061 69.5594V55.6868H159.839C160.918 55.6868 161.741 55.753 162.309 55.8855C163.104 56.0684 163.782 56.3996 164.344 56.8791C165.076 57.4973 165.621 58.2891 165.981 59.2543C166.347 60.2132 166.53 61.3109 166.53 62.5474C166.53 63.6009 166.407 64.5346 166.161 65.3484C165.915 66.1622 165.599 66.8372 165.214 67.3735C164.83 67.9034 164.407 68.3229 163.946 68.632C163.492 68.9349 162.94 69.1651 162.29 69.3228C161.647 69.4806 160.906 69.5594 160.067 69.5594H155.061ZM156.896 67.9223H159.858C160.773 67.9223 161.489 67.8372 162.006 67.6668C162.53 67.4965 162.946 67.2568 163.256 66.9476C163.691 66.5124 164.028 65.9288 164.268 65.197C164.514 64.4589 164.637 63.5662 164.637 62.519C164.637 61.068 164.397 59.9545 163.918 59.1786C163.445 58.3963 162.868 57.8727 162.186 57.6077C161.694 57.4185 160.902 57.3239 159.811 57.3239H156.896V67.9223Z" fill="white"/>
<path d="M167.957 65.1024L169.688 64.951C169.77 65.6449 169.96 66.2158 170.256 66.6638C170.559 67.1054 171.026 67.465 171.657 67.7425C172.288 68.0138 172.997 68.1494 173.786 68.1494C174.486 68.1494 175.104 68.0453 175.641 67.8372C176.177 67.629 176.574 67.3451 176.833 66.9855C177.098 66.6196 177.23 66.2222 177.23 65.7932C177.23 65.3579 177.104 64.9794 176.852 64.6576C176.6 64.3296 176.183 64.0551 175.603 63.8343C175.231 63.6892 174.407 63.4653 173.133 63.1625C171.859 62.8534 170.966 62.5632 170.455 62.2919C169.793 61.9449 169.297 61.5159 168.969 61.0049C168.648 60.4876 168.487 59.9104 168.487 59.2732C168.487 58.573 168.685 57.92 169.083 57.3144C169.48 56.7025 170.061 56.2388 170.824 55.9233C171.587 55.6079 172.436 55.4502 173.37 55.4502C174.398 55.4502 175.303 55.6174 176.085 55.9517C176.874 56.2798 177.48 56.7655 177.902 57.409C178.325 58.0525 178.552 58.7811 178.584 59.595L176.823 59.7274C176.729 58.8505 176.407 58.1881 175.858 57.7402C175.316 57.2923 174.511 57.0684 173.445 57.0684C172.335 57.0684 171.524 57.2734 171.013 57.6834C170.509 58.0872 170.256 58.5761 170.256 59.1502C170.256 59.6486 170.436 60.0586 170.796 60.3804C171.149 60.7021 172.07 61.0333 173.559 61.374C175.054 61.7083 176.079 62.0017 176.634 62.254C177.442 62.6262 178.038 63.0994 178.423 63.6735C178.808 64.2412 179 64.8973 179 65.6418C179 66.3799 178.789 67.077 178.366 67.7331C177.943 68.3829 177.334 68.8907 176.54 69.2566C175.751 69.6162 174.862 69.796 173.871 69.796C172.616 69.796 171.562 69.613 170.71 69.2471C169.865 68.8812 169.2 68.3324 168.714 67.6006C168.234 66.8625 167.982 66.0297 167.957 65.1024Z" fill="white"/>
</g>
<g opacity="0.6" clip-path="url(#clip0)">
<path d="M43.0607 18.4688C40.5157 19.0482 38.1005 19.5992 35.5838 20.1672C35.3185 19.105 35.059 18.0939 34.8107 17.0828C34.3479 15.1856 33.9134 13.2827 33.4168 11.3969C33.2758 10.8629 33.3773 10.6471 33.9134 10.4994C37.903 9.37468 41.8814 8.22727 45.871 7.09689C46.1418 7.01737 46.4409 7.02305 46.7287 7.02305C49.7928 7.01169 52.8626 7.04577 55.9324 7.00033C56.6999 6.98897 56.8466 7.27298 56.8466 7.96029C56.8297 15.9581 56.8353 23.9616 56.8353 31.9595C56.8353 38.2419 56.8353 44.5243 56.8353 50.8123C56.8353 51.1475 56.8071 51.4826 56.7902 51.8973C56.4064 51.8973 56.0961 51.8973 55.7857 51.8973C51.8751 51.8973 47.9702 51.8802 44.0595 51.9143C43.2865 51.92 43.0382 51.7439 43.0382 50.9146C43.072 40.4572 43.0607 30.0055 43.0607 19.5481C43.0607 19.2413 43.0607 18.9346 43.0607 18.4688Z" fill="white"/>
<path d="M7.72527 38.1675C7.70834 38.4742 7.66884 38.7753 7.66884 39.082C7.66884 43.0411 7.65756 47.006 7.69142 50.9651C7.69706 51.6809 7.51084 51.9251 6.77161 51.9081C4.8022 51.8626 2.83279 51.8626 0.869023 51.9081C0.146718 51.9308 0.00564301 51.6638 0.00564301 50.9992C0.022572 42.5981 0.022572 34.1969 0 25.8015C0 25.1142 0.197505 24.887 0.891595 24.904C2.64657 24.9551 4.40719 24.9438 6.16216 24.9154C6.70389 24.904 7.00861 25.0971 7.29076 25.5572C9.6439 29.4028 12.0196 33.2313 14.3897 37.0598C14.621 37.4347 14.8693 37.7982 15.2982 38.1334C15.3095 37.838 15.3377 37.5426 15.3377 37.2473C15.3433 33.4415 15.3603 29.6414 15.3264 25.8356C15.3208 25.1142 15.5239 24.8813 16.2519 24.8983C18.193 24.9438 20.1342 24.9097 22.0754 24.9154C22.3576 24.9154 22.6397 24.9438 22.967 24.9608C22.984 25.2789 23.0065 25.5345 23.0065 25.7901C23.0065 34.1629 22.9952 42.5356 23.0291 50.9083C23.0347 51.7433 22.7865 51.9308 22.0134 51.9081C20.439 51.8513 18.8646 51.874 17.2902 51.9024C16.7597 51.9137 16.4381 51.749 16.1503 51.2832C13.5996 47.1593 11.0264 43.0525 8.45886 38.9457C8.28393 38.6616 8.08078 38.4004 7.88892 38.1277C7.83249 38.1391 7.77606 38.1561 7.72527 38.1675Z" fill="white"/>
<path d="M23.7812 34.1687C23.8941 30.6867 25.1243 27.625 28.3295 25.7789C31.484 23.9612 34.7795 24.0294 37.9001 25.9437C40.304 27.4148 41.6188 29.7097 41.9969 32.4873C42.4878 36.1057 41.647 39.3662 38.8142 41.7916C36.0379 44.1717 32.7875 44.5863 29.4412 43.2628C26.0892 41.9393 24.3794 39.2355 23.8828 35.7081C23.8151 35.248 23.8208 34.7651 23.7812 34.1687ZM30.1691 34.3618C30.1691 35.1741 30.2876 36.1227 30.7221 36.935C31.7266 38.8095 33.9499 38.8436 35.1463 37.094C36.1846 35.5717 36.1451 32.7998 35.0673 31.3115C33.8202 29.5904 31.4783 29.7722 30.598 31.7035C30.2481 32.4817 30.1691 33.5552 30.1691 34.3618Z" fill="white"/>
<path d="M41.6212 51.8062C35.8202 51.8062 30.1434 51.8062 24.3875 51.8062C24.3706 51.4881 24.3424 51.2097 24.3424 50.9257C24.3367 49.3977 24.3424 47.8641 24.3424 46.3361C24.3424 45.1659 24.348 45.1659 25.471 45.1659C28.4561 45.1659 31.4469 45.1716 34.432 45.1716C36.5312 45.1716 38.6248 45.1943 40.724 45.1602C41.3786 45.1489 41.6551 45.3022 41.6382 46.035C41.5874 47.9322 41.6212 49.8237 41.6212 51.8062Z" fill="white"/>
<path d="M3.32939 57.4751C3.21089 57.3615 3.06981 57.2763 2.90616 57.2195C2.74252 57.1627 2.5563 57.1343 2.35315 57.1343H0.344238V61.6899H0.773107V59.7358H2.35315C2.5563 59.7358 2.74252 59.7074 2.90616 59.6506C3.06981 59.5938 3.21089 59.5086 3.32939 59.395C3.44789 59.2814 3.53818 59.1451 3.60025 58.9861C3.66233 58.827 3.69618 58.6396 3.69618 58.4351C3.69618 58.2306 3.66233 58.0488 3.60025 57.8841C3.53818 57.725 3.44789 57.5887 3.32939 57.4751ZM2.99081 59.1394C2.80459 59.2928 2.56194 59.3666 2.26286 59.3666H0.77875V57.5035H2.25722C2.5563 57.5035 2.79895 57.5773 2.98516 57.7307C3.17138 57.8841 3.26167 58.117 3.26167 58.4351C3.26732 58.7532 3.17703 58.9861 2.99081 59.1394Z" fill="white" stroke="white" stroke-width="0.23364" stroke-miterlimit="10"/>
<path d="M4.98969 59.52H7.51211V59.1508H4.98969V57.5035H7.6814V57.1343H4.55518V61.6899H7.71526V61.3206H4.98969V59.52Z" fill="white" stroke="white" stroke-width="0.23364" stroke-miterlimit="10"/>
<path d="M12.1732 57.1343H11.592L8.96234 59.5825V57.1343H8.52783V61.6899H8.96234V60.1278L9.83137 59.3155L11.7105 61.6899H12.2691L10.153 59.0145L12.1732 57.1343Z" fill="white" stroke="white" stroke-width="0.23364" stroke-miterlimit="10"/>
<path d="M16.348 57.7592C16.1731 57.5376 15.9473 57.3672 15.6821 57.2366C15.4169 57.1059 15.1065 57.0435 14.751 57.0435C14.3955 57.0435 14.0852 57.1059 13.8143 57.2366C13.5434 57.3672 13.3234 57.5433 13.1428 57.7592C12.9678 57.9807 12.8324 58.2306 12.7421 58.5203C12.6518 58.81 12.6067 59.1054 12.6067 59.4178C12.6067 59.7302 12.6518 60.0313 12.7421 60.3153C12.8324 60.5993 12.9622 60.8492 13.1428 61.0708C13.3177 61.2866 13.5434 61.4627 13.8143 61.5934C14.0852 61.724 14.3955 61.7865 14.751 61.7865C15.1065 61.7865 15.4169 61.724 15.6821 61.5934C15.9473 61.4627 16.1731 61.2923 16.348 61.0708C16.5229 60.8549 16.6584 60.605 16.7487 60.3153C16.8389 60.0313 16.8841 59.7302 16.8841 59.4178C16.8841 59.1054 16.8389 58.81 16.7487 58.5203C16.6584 58.2306 16.5229 57.975 16.348 57.7592ZM16.348 60.1449C16.2803 60.3835 16.1787 60.5936 16.0433 60.7868C15.9078 60.9742 15.7273 61.1276 15.5128 61.2412C15.2984 61.3548 15.0388 61.4116 14.7454 61.4116C14.4463 61.4116 14.1867 61.3548 13.9723 61.2412C13.7579 61.1276 13.5829 60.9742 13.4419 60.7868C13.3064 60.5993 13.2048 60.3835 13.1371 60.1449C13.0694 59.9063 13.0412 59.6621 13.0412 59.4121C13.0412 59.1679 13.0751 58.9236 13.1371 58.6851C13.2048 58.4465 13.3064 58.2306 13.4419 58.0432C13.5773 57.8557 13.7579 57.7024 13.9723 57.5888C14.1867 57.4752 14.4463 57.4184 14.7454 57.4184C15.0388 57.4184 15.2984 57.4752 15.5128 57.5888C15.7273 57.7024 15.9022 57.8557 16.0433 58.0432C16.1787 58.2306 16.2803 58.4465 16.348 58.6851C16.4157 58.9236 16.4439 59.1679 16.4439 59.4121C16.4496 59.6621 16.4157 59.9063 16.348 60.1449Z" fill="white" stroke="white" stroke-width="0.23364" stroke-miterlimit="10"/>
<path d="M20.7513 57.4751C20.6328 57.3615 20.4917 57.2763 20.328 57.2195C20.1644 57.1627 19.9782 57.1343 19.775 57.1343H17.7661V61.6899H18.195V59.7358H19.775C19.9782 59.7358 20.1644 59.7074 20.328 59.6506C20.4917 59.5938 20.6328 59.5086 20.7513 59.395C20.8698 59.2814 20.9601 59.1451 21.0221 58.9861C21.0842 58.827 21.1181 58.6396 21.1181 58.4351C21.1181 58.2306 21.0842 58.0488 21.0221 57.8841C20.9601 57.725 20.8698 57.5887 20.7513 57.4751ZM20.4127 59.1394C20.2265 59.2928 19.9838 59.3666 19.6847 59.3666H18.2006V57.5035H19.6847C19.9838 57.5035 20.2265 57.5773 20.4127 57.7307C20.5989 57.8841 20.6892 58.117 20.6892 58.4351C20.6892 58.7532 20.5989 58.9861 20.4127 59.1394Z" fill="white" stroke="white" stroke-width="0.23364" stroke-miterlimit="10"/>
<path d="M25.4669 57.1343H22.6624V57.7364C22.6624 57.9977 22.6567 58.2703 22.6454 58.5657C22.6342 58.8611 22.6059 59.1621 22.5608 59.4746C22.5157 59.787 22.4479 60.0994 22.3633 60.4118C22.273 60.7242 22.1489 61.031 21.9909 61.3263H21.5168V62.9111H21.9457V61.7012H25.5742V62.9111H26.003V61.3263H25.4669V57.1343ZM25.0381 61.3206H22.4536C22.6116 61.0196 22.7357 60.7072 22.826 60.3834C22.9107 60.0596 22.9784 59.7415 23.0179 59.4178C23.0574 59.0997 23.0856 58.7872 23.0912 58.4919C23.0969 58.1965 23.1025 57.9125 23.1025 57.6569V57.5035H25.0437V61.3206H25.0381Z" fill="white" stroke="white" stroke-width="0.23364" stroke-miterlimit="10"/>
<path d="M31.1794 57.1343H30.7505V61.6899H31.1794V57.1343Z" fill="white" stroke="white" stroke-width="0.23364" stroke-miterlimit="10"/>
<path d="M28.7399 59.0599H27.1598V57.1343H26.731V61.6899H28.7399C29.1631 61.6899 29.4904 61.5706 29.7274 61.3377C29.9644 61.1048 30.0829 60.781 30.0829 60.372C30.0829 59.9631 29.9644 59.645 29.7274 59.4064C29.4904 59.1792 29.1631 59.0599 28.7399 59.0599ZM29.3832 61.0707C29.2082 61.2411 28.9599 61.3206 28.6439 61.3206H27.1598V59.4291H28.6439C28.9599 59.4291 29.2082 59.5143 29.3832 59.679C29.5581 59.8495 29.6484 60.0767 29.6484 60.372C29.654 60.6674 29.5637 60.9003 29.3832 61.0707Z" fill="white" stroke="white" stroke-width="0.23364" stroke-miterlimit="10"/>
<path d="M37.2708 57.4751C37.1523 57.3615 37.0112 57.2763 36.8476 57.2195C36.6839 57.1627 36.4977 57.1343 36.2946 57.1343H34.2856V61.6899H34.7145V59.7358H36.2946C36.4977 59.7358 36.6839 59.7074 36.8476 59.6506C37.0112 59.5938 37.1523 59.5086 37.2708 59.395C37.3893 59.2814 37.4796 59.1451 37.5417 58.9861C37.6037 58.827 37.6376 58.6396 37.6376 58.4351C37.6376 58.2306 37.6037 58.0488 37.5417 57.8841C37.4796 57.725 37.3893 57.5887 37.2708 57.4751ZM36.9266 59.1394C36.7404 59.2928 36.4977 59.3666 36.1986 59.3666H34.7145V57.5035H36.1986C36.4977 57.5035 36.7404 57.5773 36.9266 57.7307C37.1128 57.8841 37.2031 58.117 37.2031 58.4351C37.2087 58.7532 37.1128 58.9861 36.9266 59.1394Z" fill="white" stroke="white" stroke-width="0.23364" stroke-miterlimit="10"/>
<path d="M42.945 57.1343H42.5161V61.6899H42.945V57.1343Z" fill="white" stroke="white" stroke-width="0.23364" stroke-miterlimit="10"/>
<path d="M40.5055 59.0599H38.9254V57.1343H38.4966V61.6899H40.5055C40.9287 61.6899 41.256 61.5706 41.493 61.3377C41.73 61.1048 41.8485 60.781 41.8485 60.372C41.8485 59.9631 41.73 59.645 41.493 59.4064C41.256 59.1792 40.9287 59.0599 40.5055 59.0599ZM41.1488 61.0707C40.9739 61.2411 40.7256 61.3206 40.4096 61.3206H38.9254V59.4291H40.4096C40.7256 59.4291 40.9739 59.5143 41.1488 59.679C41.3237 59.8495 41.414 60.0767 41.414 60.372C41.4197 60.6674 41.3294 60.9003 41.1488 61.0707Z" fill="white" stroke="white" stroke-width="0.23364" stroke-miterlimit="10"/>
<path d="M47.1914 59.111H44.5053V57.1343H44.0708V61.6899H44.5053V59.4802H47.1914V61.6899H47.6203V57.1343H47.1914V59.111Z" fill="white" stroke="white" stroke-width="0.23364" stroke-miterlimit="10"/>
<path d="M52.3954 57.1343H51.8142L49.1845 59.5825V57.1343H48.75V61.6899H49.1845V60.1278L50.0535 59.3155L51.9327 61.6899H52.4913L50.3752 59.0145L52.3954 57.1343Z" fill="white" stroke="white" stroke-width="0.23364" stroke-miterlimit="10"/>
<path d="M54.8839 57.1343H54.3986L52.5815 61.6899H53.0386L53.586 60.2755H55.6401L56.1931 61.6899H56.6558L54.8839 57.1343ZM53.7158 59.9063L54.6243 57.5717L55.499 59.9063H53.7158Z" fill="white" stroke="white" stroke-width="0.23364" stroke-miterlimit="10"/>
<path d="M0.339844 64.1777H0.768712V66.1374H3.43221V64.1777H3.86108V68.6879H3.43221V66.501H0.768712V68.6879H0.339844V64.1777Z" fill="white" stroke="white" stroke-width="0.23364" stroke-miterlimit="10"/>
<path d="M5.05859 64.1777H8.1566V64.547H5.48746V66.1772H7.98731V66.5464H5.48746V68.33H8.18482V68.6992H5.05859V64.1777Z" fill="white" stroke="white" stroke-width="0.23364" stroke-miterlimit="10"/>
<path d="M8.625 68.3188H9.09337C9.25137 68.0234 9.37552 67.7224 9.46581 67.4099C9.5561 67.0975 9.61817 66.7908 9.66331 66.4841C9.70846 66.1773 9.73667 65.8763 9.74232 65.5866C9.7536 65.2969 9.75924 65.0242 9.75924 64.7629V64.1665H12.5356V68.3131H13.0717V69.8809H12.6428V68.688H9.05387V69.8865H8.625V68.3188ZM12.1067 68.3188V64.5414H10.1881V64.6948C10.1881 64.9504 10.1825 65.223 10.1768 65.5184C10.1712 65.8138 10.1486 66.1205 10.1035 66.4386C10.064 66.7567 9.99625 67.0748 9.91161 67.3929C9.82696 67.711 9.70281 68.0234 9.54481 68.3245H12.1067V68.3188Z" fill="white" stroke="white" stroke-width="0.23364" stroke-miterlimit="10"/>
<path d="M13.8672 64.1777H15.7632C15.9495 64.1777 16.13 64.1948 16.305 64.2289C16.4799 64.2629 16.6323 64.3254 16.762 64.4106C16.8918 64.4958 16.9991 64.6094 17.0781 64.7514C17.1571 64.8935 17.1966 65.0695 17.1966 65.2797C17.1966 65.399 17.1796 65.5126 17.1401 65.6262C17.1006 65.7398 17.0498 65.8364 16.9821 65.9273C16.9144 66.0181 16.8298 66.092 16.7395 66.1602C16.6435 66.2226 16.542 66.2681 16.4235 66.2908V66.3022C16.7113 66.3419 16.9426 66.4612 17.1119 66.66C17.2812 66.8588 17.3715 67.1088 17.3715 67.4041C17.3715 67.5121 17.3546 67.6427 17.3263 67.7847C17.2925 67.9324 17.2248 68.0687 17.1176 68.205C17.0103 68.3414 16.8467 68.455 16.6323 68.5459C16.4178 68.6368 16.13 68.6822 15.7632 68.6822H13.8672V64.1777ZM15.7632 66.1545C15.9325 66.1545 16.0792 66.1318 16.2034 66.092C16.3332 66.0522 16.4348 65.9954 16.5194 65.9273C16.604 65.8591 16.6661 65.7739 16.7056 65.683C16.7451 65.5921 16.7677 65.4899 16.7677 65.3876C16.7677 64.8253 16.4291 64.5413 15.7576 64.5413H14.2904V66.1545H15.7632ZM15.7632 68.3187C15.9212 68.3187 16.0736 68.3073 16.2147 68.2789C16.3558 68.2505 16.4799 68.1994 16.5928 68.1312C16.7 68.0574 16.7846 67.9665 16.8523 67.8472C16.9144 67.7279 16.9483 67.5802 16.9483 67.3928C16.9483 67.1031 16.8467 66.8815 16.6435 66.7395C16.4404 66.5918 16.147 66.5237 15.7689 66.5237H14.3017V68.3243H15.7632V68.3187Z" fill="white" stroke="white" stroke-width="0.23364" stroke-miterlimit="10"/>
<path d="M18.3477 64.1777H18.7765V68.2278L21.3497 64.1777H21.9028V68.6879H21.4739V64.6378L18.9007 68.6879H18.3477V64.1777Z" fill="white" stroke="white" stroke-width="0.23364" stroke-miterlimit="10"/>
<path d="M24.6159 66.1207L22.7593 64.1724H23.3349L25.547 66.5467V64.1724H25.9758V66.5467L28.1879 64.1724H28.7635L26.9069 66.1207L28.9215 68.6882H28.3685L26.6022 66.4388L25.9758 67.0977V68.6882H25.547V67.0977L24.9206 66.4388L23.1543 68.6882H22.6013L24.6159 66.1207Z" fill="white" stroke="white" stroke-width="0.23364" stroke-miterlimit="10"/>
<path d="M29.6099 64.1777H30.0387V68.2278L32.6119 64.1777H33.165V68.6879H32.7361V64.6378L30.1629 68.6879H29.6099V64.1777Z" fill="white" stroke="white" stroke-width="0.23364" stroke-miterlimit="10"/>
<path d="M34.3516 64.1777H34.9779L36.5298 68.1312L38.0759 64.1777H38.7023V68.6879H38.2734V64.7912H38.2622L36.7329 68.6879H36.3323L34.7917 64.7912H34.7804V68.6879H34.3516V64.1777Z" fill="white" stroke="white" stroke-width="0.23364" stroke-miterlimit="10"/>
<path d="M41.7667 68.7788C41.4169 68.7788 41.1065 68.7163 40.8413 68.5857C40.5761 68.455 40.356 68.2846 40.181 68.0688C40.0061 67.8529 39.8707 67.603 39.786 67.3247C39.6958 67.0407 39.6562 66.7453 39.6562 66.4329C39.6562 66.1261 39.7014 65.8308 39.786 65.5467C39.8763 65.2627 40.0061 65.0128 40.181 64.7969C40.356 64.5811 40.5761 64.405 40.8413 64.28C41.1065 64.1494 41.4169 64.0869 41.7667 64.0869C42.1166 64.0869 42.427 64.1494 42.6922 64.28C42.9574 64.4107 43.1775 64.5811 43.3524 64.7969C43.5273 65.0128 43.6628 65.2627 43.7474 65.5467C43.8377 65.8308 43.8772 66.1261 43.8772 66.4329C43.8772 66.7453 43.8321 67.0407 43.7474 67.3247C43.6571 67.6087 43.5273 67.8529 43.3524 68.0688C43.1775 68.2846 42.9574 68.455 42.6922 68.5857C42.427 68.7163 42.1166 68.7788 41.7667 68.7788ZM41.7667 68.4096C42.0602 68.4096 42.3141 68.3528 42.5285 68.2392C42.743 68.1256 42.9179 67.9779 43.0533 67.7905C43.1888 67.603 43.2903 67.3928 43.3524 67.1543C43.4145 66.9214 43.4483 66.6771 43.4483 66.4272C43.4483 66.1829 43.4145 65.9444 43.3524 65.7058C43.2847 65.4672 43.1888 65.2571 43.0533 65.0696C42.9179 64.8822 42.743 64.7345 42.5285 64.6209C42.3141 64.5073 42.0602 64.4505 41.7667 64.4505C41.4677 64.4505 41.2137 64.5073 40.9993 64.6209C40.7848 64.7345 40.6099 64.8822 40.4745 65.0696C40.3391 65.2571 40.2375 65.4672 40.1754 65.7058C40.1077 65.9444 40.0795 66.1829 40.0795 66.4272C40.0795 66.6771 40.1133 66.9157 40.1754 67.1543C40.2375 67.3872 40.3391 67.603 40.4745 67.7905C40.6099 67.9779 40.7848 68.1256 40.9993 68.2392C41.2137 68.3528 41.4677 68.4096 41.7667 68.4096Z" fill="white" stroke="white" stroke-width="0.23364" stroke-miterlimit="10"/>
<path d="M46.7355 68.7788C46.3856 68.7788 46.0753 68.7163 45.81 68.5857C45.5448 68.455 45.3247 68.2846 45.1498 68.0688C44.9749 67.8529 44.8394 67.603 44.7548 67.3247C44.6645 67.0407 44.625 66.7453 44.625 66.4329C44.625 66.1261 44.6701 65.8308 44.7548 65.5467C44.8451 65.2627 44.9749 65.0128 45.1498 64.7969C45.3247 64.5811 45.5448 64.405 45.81 64.28C46.0753 64.1494 46.3856 64.0869 46.7355 64.0869C46.9499 64.0869 47.1587 64.121 47.3619 64.1835C47.565 64.246 47.7512 64.3425 47.9149 64.4675C48.0785 64.5925 48.2196 64.7458 48.3268 64.9276C48.4397 65.1094 48.5074 65.3195 48.5356 65.5524H48.1067C48.0672 65.382 48.0052 65.223 47.9205 65.0866C47.8359 64.9503 47.7287 64.8367 47.6045 64.7401C47.4804 64.6493 47.3449 64.5754 47.1982 64.53C47.0515 64.4789 46.8935 64.4561 46.7298 64.4561C46.4308 64.4561 46.1768 64.5129 45.9624 64.6265C45.748 64.7401 45.573 64.8878 45.4376 65.0753C45.3022 65.2627 45.2006 65.4729 45.1385 65.7115C45.0708 65.95 45.0426 66.1886 45.0426 66.4329C45.0426 66.6828 45.0764 66.9214 45.1385 67.1599C45.2006 67.3928 45.3022 67.6087 45.4376 67.7961C45.573 67.9836 45.748 68.1313 45.9624 68.2449C46.1768 68.3585 46.4308 68.4153 46.7298 68.4153C46.933 68.4153 47.1249 68.3755 47.2941 68.3017C47.4634 68.2278 47.6102 68.1199 47.7287 67.9893C47.8528 67.8586 47.9487 67.7053 48.0221 67.5292C48.0955 67.3531 48.1462 67.1656 48.1688 66.9611H48.5977C48.5695 67.2395 48.5017 67.4894 48.4058 67.7109C48.3042 67.9325 48.1745 68.1256 48.0164 68.279C47.8584 68.438 47.6722 68.5573 47.4521 68.6425C47.2377 68.7334 47.0007 68.7788 46.7355 68.7788Z" fill="white" stroke="white" stroke-width="0.23364" stroke-miterlimit="10"/>
<path d="M50.6317 64.5411H49.0742V64.1719H52.6237V64.5411H51.0606V68.6877H50.6317V64.5411Z" fill="white" stroke="white" stroke-width="0.23364" stroke-miterlimit="10"/>
<path d="M53.3398 64.1777H53.7687V68.2278L56.3419 64.1777H56.8949V68.6879H56.4661V64.6378L53.8929 68.6879H53.3398V64.1777Z" fill="white" stroke="white" stroke-width="0.23364" stroke-miterlimit="10"/>
</g>
<g opacity="0.6">
<path d="M289.833 37.4541C289.513 37.7536 289.194 38.0532 288.87 38.3487C288.773 38.4377 288.773 38.5025 288.858 38.5996C289.093 38.8709 289.311 39.1542 289.546 39.4214C289.667 39.555 289.679 39.6359 289.522 39.7533C289.198 40.0043 288.89 40.2755 288.554 40.5548C288.842 40.9555 289.121 41.3401 289.42 41.7489C289.024 42.0404 288.635 42.3237 288.235 42.6233C288.498 43.0362 288.753 43.4369 289.024 43.87C288.765 44.036 288.518 44.206 288.263 44.3639C287.786 44.6634 287.782 44.6634 288.045 45.1492C288.186 45.4163 288.34 45.6754 288.498 45.9628C288.206 46.1247 287.927 46.2826 287.644 46.4364C287.199 46.6793 287.199 46.6752 287.417 47.1367C287.551 47.416 287.684 47.6953 287.814 47.9746C287.818 47.9786 287.814 47.9867 287.814 48.0191C287.531 48.1568 287.235 48.3025 286.936 48.4401C286.491 48.6506 286.491 48.6506 286.677 49.0959C286.778 49.3387 286.867 49.5857 286.976 49.8245C287.037 49.9621 287.029 50.035 286.871 50.0957C286.527 50.2171 286.199 50.371 285.855 50.4964C285.71 50.5491 285.686 50.6138 285.734 50.7515C285.835 51.0389 285.924 51.3263 286.017 51.6137C286.054 51.727 286.082 51.8444 286.123 51.9739C285.71 52.1116 285.317 52.2492 284.917 52.3706C284.779 52.4152 284.735 52.4718 284.779 52.6176C284.876 52.9657 284.953 53.3259 285.054 53.6741C285.103 53.84 285.038 53.8886 284.9 53.925C284.552 54.01 284.213 54.1072 283.865 54.1881C283.719 54.2205 283.678 54.2853 283.711 54.427C283.788 54.7953 283.852 55.1677 283.933 55.5361C283.962 55.6616 283.917 55.7061 283.804 55.7304C283.44 55.7992 283.08 55.8761 282.711 55.9368C282.562 55.9611 282.501 56.0057 282.525 56.1676C282.582 56.5278 282.61 56.8921 282.671 57.2484C282.699 57.4062 282.671 57.4629 282.501 57.4791C282.145 57.5115 281.793 57.5762 281.441 57.6086C281.259 57.6248 281.218 57.7017 281.238 57.8677C281.271 58.1551 281.283 58.4465 281.299 58.7339C281.307 58.8513 281.299 58.9728 281.299 59.1104C280.826 59.1428 280.356 59.1752 279.863 59.2116C279.863 59.7054 279.863 60.1871 279.863 60.7012C279.486 60.7012 279.138 60.7012 278.79 60.7012C278.374 60.7012 278.374 60.7012 278.349 61.102C278.329 61.3975 278.309 61.693 278.293 61.9885C278.284 62.118 278.24 62.1787 278.094 62.1666C277.758 62.1342 277.423 62.122 277.087 62.0978C276.816 62.0775 276.808 62.0856 276.775 62.3568C276.735 62.6968 276.686 63.0369 276.65 63.3809C276.634 63.5267 276.565 63.5591 276.431 63.5388C276.079 63.4902 275.723 63.4538 275.371 63.3971C275.213 63.3729 275.136 63.4052 275.112 63.5752C275.059 63.9193 274.974 64.2634 274.926 64.6075C274.898 64.7977 274.813 64.818 274.651 64.7815C274.323 64.7127 273.987 64.6641 273.659 64.5872C273.485 64.5467 273.408 64.5832 273.368 64.7694C273.295 65.1256 273.19 65.4737 273.105 65.8299C273.077 65.9473 273.036 65.9838 272.911 65.9514C272.567 65.8542 272.215 65.7895 271.875 65.6842C271.669 65.6194 271.6 65.6842 271.547 65.8704C271.434 66.2509 271.304 66.6274 271.175 67.0322C270.875 66.9391 270.592 66.85 270.305 66.765C270.131 66.7124 269.92 66.5828 269.795 66.6436C269.674 66.7002 269.633 66.9472 269.564 67.1131C269.451 67.3843 269.346 67.6636 269.228 67.9591C269.059 67.8944 268.905 67.8377 268.751 67.781C268.52 67.692 268.282 67.611 268.055 67.5058C267.897 67.4329 267.82 67.4572 267.752 67.6232C267.594 67.9996 267.412 68.372 267.23 68.7687C267.023 68.6716 266.825 68.5785 266.627 68.4854C266.436 68.3963 266.246 68.3113 266.06 68.2182C265.935 68.1575 265.862 68.1696 265.789 68.3113C265.599 68.6837 265.392 69.044 265.178 69.4366C264.883 69.2787 264.599 69.133 264.32 68.9792C263.883 68.7404 263.883 68.7404 263.62 69.1533C263.482 69.3678 263.349 69.5864 263.215 69.805C263.139 69.9345 263.066 69.9831 262.916 69.8778C262.625 69.6754 262.309 69.5014 262.014 69.303C261.888 69.218 261.815 69.218 261.722 69.3557C261.488 69.6997 261.237 70.0357 260.978 70.396C260.699 70.1976 260.427 70.0033 260.16 69.809C259.784 69.5297 259.784 69.5297 259.485 69.89C259.274 70.145 259.068 70.4 258.845 70.6712C258.461 70.3636 258.089 70.06 257.696 69.7443C257.36 70.1045 257.036 70.4486 256.692 70.817C256.336 70.485 255.984 70.1572 255.612 69.8131C255.248 70.1531 254.892 70.4891 254.532 70.8331C254.188 70.4729 253.856 70.1207 253.512 69.7605C253.132 70.0762 252.763 70.3838 252.379 70.7036C252.063 70.3272 251.76 69.9628 251.436 69.5742C251.04 69.8576 250.655 70.1369 250.25 70.4284C250.182 70.3474 250.117 70.2745 250.06 70.1976C249.874 69.9426 249.68 69.6916 249.506 69.4245C249.413 69.2828 249.336 69.2545 249.186 69.3557C248.846 69.5864 248.494 69.8009 248.126 70.0357C248.045 69.9183 247.964 69.805 247.891 69.6916C247.734 69.4488 247.576 69.2059 247.43 68.9549C247.353 68.8254 247.28 68.8132 247.155 68.8861C246.787 69.0966 246.414 69.299 246.03 69.5095C245.824 69.1371 245.621 68.7809 245.435 68.4165C245.354 68.2587 245.285 68.2182 245.111 68.3113C244.751 68.5056 244.371 68.6675 243.978 68.8497C243.817 68.5096 243.659 68.1777 243.497 67.8458C243.473 67.7891 243.436 67.7405 243.42 67.6839C243.367 67.5382 243.282 67.5381 243.153 67.5908C242.777 67.7486 242.392 67.8944 241.988 68.0563C241.947 67.9753 241.907 67.9106 241.878 67.8377C241.745 67.5058 241.611 67.1738 241.482 66.8419C241.441 66.7286 241.385 66.7002 241.271 66.7407C240.863 66.8783 240.454 67.0119 240.017 67.1576C239.952 66.9714 239.896 66.7933 239.835 66.6193C239.758 66.3885 239.681 66.1578 239.612 65.9271C239.572 65.7976 239.503 65.7611 239.374 65.7975C239.017 65.8987 238.657 65.9797 238.301 66.0809C238.164 66.1214 238.107 66.0809 238.075 65.9473C237.99 65.5992 237.884 65.2592 237.808 64.9111C237.767 64.7168 237.674 64.7006 237.512 64.737C237.12 64.822 236.723 64.8989 236.302 64.9799C236.258 64.7775 236.217 64.5913 236.181 64.401C236.136 64.1703 236.092 63.9396 236.055 63.7048C236.035 63.5712 235.975 63.5267 235.837 63.5469C235.465 63.5995 235.088 63.636 234.716 63.6967C234.578 63.7169 234.538 63.6845 234.526 63.551C234.477 63.1259 234.417 62.7009 234.356 62.2516C233.862 62.284 233.385 62.3123 232.883 62.3487C232.847 61.8549 232.814 61.3772 232.782 60.8753C232.345 60.8753 231.928 60.8672 231.511 60.8793C231.341 60.8834 231.289 60.8308 231.293 60.6648C231.305 60.3005 231.289 59.9362 231.297 59.5719C231.301 59.4302 231.248 59.3897 231.111 59.3816C230.694 59.3654 230.277 59.333 229.844 59.3047C229.844 59.159 229.84 59.0254 229.844 58.8959C229.86 58.6004 229.876 58.3049 229.905 58.0094C229.917 57.8758 229.881 57.8151 229.735 57.8029C229.379 57.7705 229.027 57.722 228.671 57.6815C228.448 57.6532 228.428 57.6289 228.46 57.3941C228.509 57.0419 228.557 56.6857 228.602 56.3335C228.606 56.289 228.602 56.2404 228.602 56.1838C228.12 56.0907 227.647 56.0016 227.157 55.9085C227.238 55.4916 227.307 55.103 227.388 54.7144C227.428 54.5241 227.392 54.427 227.177 54.3824C226.797 54.3055 226.421 54.1962 226.004 54.095C226.117 53.6174 226.235 53.1478 226.352 52.6621C225.883 52.5083 225.433 52.3625 224.956 52.2047C225.053 51.893 225.146 51.6015 225.243 51.306C225.409 50.7919 225.409 50.7919 224.907 50.5976C224.62 50.4843 224.333 50.371 224.033 50.2536C224.195 49.8447 224.337 49.4521 224.503 49.0716C224.572 48.9097 224.527 48.8449 224.381 48.7801C224.001 48.6101 223.625 48.432 223.232 48.2499C223.406 47.8734 223.572 47.5212 223.738 47.1691C223.855 46.9181 223.859 46.9181 223.625 46.7886C223.354 46.6388 223.078 46.4931 222.807 46.3433C222.73 46.3028 222.658 46.2542 222.564 46.2016C222.799 45.7685 223.026 45.3475 223.265 44.9063C222.848 44.6432 222.443 44.3841 222.022 44.1169C222.281 43.7 222.532 43.2952 222.795 42.8661C222.399 42.5787 222.01 42.2913 221.605 41.9958C221.848 41.6558 222.071 41.3198 222.322 41.0041C222.459 40.83 222.423 40.741 222.265 40.6196C221.949 40.3807 221.65 40.1217 221.326 39.8585C221.593 39.5388 221.84 39.2311 222.095 38.9275C222.269 38.717 222.273 38.7211 222.071 38.5349C221.82 38.3001 221.573 38.0613 221.314 37.8346C221.205 37.7415 221.201 37.6767 221.298 37.5755C221.561 37.3043 221.808 37.021 222.071 36.7497C222.164 36.6526 222.156 36.5878 222.067 36.4947C221.767 36.183 221.476 35.8714 221.168 35.5475C221.484 35.252 221.784 34.9606 222.095 34.6853C222.216 34.576 222.221 34.4991 222.111 34.3736C221.84 34.066 221.589 33.7422 221.306 33.4021C221.5 33.2362 221.682 33.0783 221.873 32.9164C222.018 32.7949 222.16 32.6735 222.31 32.5561C222.411 32.4792 222.415 32.4104 222.334 32.3051C222.079 31.9692 221.832 31.621 221.569 31.2567C221.666 31.1839 221.755 31.1151 221.844 31.0503C222.111 30.8519 222.374 30.6536 222.641 30.4633C222.734 30.3986 222.738 30.3419 222.678 30.2488C222.439 29.8885 222.208 29.5242 221.962 29.1397C222.127 29.0263 222.285 28.917 222.447 28.8118C222.621 28.6985 222.799 28.5892 222.977 28.4758C223.204 28.3301 223.2 28.3301 223.066 28.0872C222.88 27.7512 222.698 27.4153 222.5 27.055C222.556 27.0145 222.613 26.966 222.674 26.9336C222.985 26.7595 223.293 26.5814 223.613 26.4154C223.754 26.3426 223.77 26.2738 223.698 26.1361C223.507 25.7637 223.337 25.3832 223.151 24.9865C223.507 24.8125 223.851 24.6465 224.195 24.4805C224.483 24.3429 224.483 24.3429 224.361 24.0393C224.224 23.6952 224.086 23.3512 223.94 22.9909C224.021 22.9504 224.09 22.914 224.163 22.8816C224.483 22.7521 224.798 22.6185 225.122 22.5052C225.288 22.4444 225.296 22.3675 225.243 22.2178C225.122 21.8899 225.021 21.5539 224.911 21.222C224.891 21.1653 224.883 21.1046 224.863 21.0236C225.142 20.9305 225.413 20.8374 225.684 20.7484C226.251 20.5622 226.251 20.5622 226.101 19.9793C226.04 19.7526 225.984 19.5218 225.919 19.2952C225.887 19.1737 225.911 19.113 226.044 19.0806C226.457 18.9794 226.866 18.8661 227.299 18.7527C227.258 18.522 227.222 18.2994 227.182 18.0767C227.145 17.8703 227.105 17.6679 227.06 17.4615C227.032 17.3441 227.064 17.2874 227.19 17.2672C227.53 17.2064 227.865 17.1376 228.201 17.0729C228.286 17.0567 228.371 17.0364 228.476 17.0081C228.416 16.5183 228.355 16.0447 228.294 15.5508C228.784 15.482 229.257 15.4213 229.759 15.3525C229.731 14.8627 229.702 14.381 229.674 13.8831C230.164 13.8467 230.629 13.8143 231.131 13.7779C231.131 13.5998 231.131 13.4257 231.131 13.2557C231.131 13.0047 231.139 12.7578 231.127 12.5068C231.119 12.3409 231.188 12.2963 231.341 12.3004C231.697 12.3085 232.058 12.2963 232.414 12.3044C232.567 12.3085 232.624 12.2558 232.632 12.098C232.644 11.7337 232.681 11.3734 232.697 11.0091C232.701 10.8634 232.762 10.8229 232.895 10.835C233.312 10.8634 233.729 10.8836 234.17 10.9119C234.21 10.6286 234.247 10.3493 234.283 10.074C234.299 9.94044 234.32 9.80686 234.328 9.67328C234.332 9.49517 234.417 9.4466 234.587 9.47089C234.987 9.52756 235.388 9.57208 235.821 9.62875C235.853 9.47493 235.881 9.32921 235.91 9.17944C235.962 8.90823 236.019 8.63702 236.064 8.36581C236.084 8.23223 236.124 8.17555 236.274 8.20794C236.63 8.28485 236.99 8.34152 237.346 8.41438C237.5 8.44676 237.577 8.41033 237.613 8.24032C237.702 7.83958 237.812 7.44693 237.921 7.01785C238.402 7.13524 238.868 7.25263 239.357 7.37407C239.479 6.99357 239.596 6.62925 239.713 6.26494C239.811 5.96944 239.766 5.9492 240.09 6.0585C240.401 6.16374 240.721 6.25685 241.033 6.36209C241.17 6.41067 241.239 6.38233 241.292 6.24065C241.437 5.84396 241.595 5.45131 241.753 5.03842C242.162 5.19629 242.554 5.34202 242.934 5.50393C243.088 5.5687 243.161 5.54037 243.226 5.39059C243.392 5.01414 243.57 4.64578 243.752 4.24503C244.015 4.36242 244.27 4.48386 244.525 4.59316C244.715 4.67411 244.933 4.84413 245.091 4.7996C245.233 4.75912 245.306 4.48386 245.403 4.30575C245.536 4.07097 245.662 3.8362 245.807 3.57308C246.091 3.72285 246.37 3.86858 246.645 4.01835C247.102 4.26932 247.102 4.27337 247.386 3.83215C247.547 3.58523 247.701 3.33021 247.863 3.07924C247.871 3.06709 247.883 3.06305 247.916 3.03471C248.247 3.24115 248.595 3.4395 248.927 3.66618C249.101 3.78357 249.186 3.77143 249.304 3.59332C249.518 3.26139 249.765 2.9497 250.016 2.60563C250.34 2.84041 250.655 3.06709 250.967 3.29378C251.214 3.47188 251.214 3.47188 251.408 3.23711C251.651 2.94161 251.893 2.64206 252.144 2.33037C252.476 2.59754 252.8 2.84851 253.107 3.11567C253.257 3.2452 253.342 3.22496 253.467 3.08733C253.73 2.78779 254.006 2.50443 254.297 2.19274C254.495 2.37085 254.681 2.54086 254.868 2.71088C254.985 2.82017 255.11 2.92542 255.22 3.04281C255.329 3.16424 255.422 3.16424 255.539 3.0509C255.843 2.75136 256.15 2.45991 256.454 2.16846C256.466 2.16846 256.482 2.16846 256.494 2.16846C256.741 2.44371 256.984 2.71492 257.231 2.99018C257.312 3.07519 257.401 3.15615 257.486 3.24115C257.87 2.92137 258.238 2.61778 258.611 2.30609C258.934 2.69064 259.246 3.059 259.561 3.43545C259.97 3.12376 260.351 2.84446 260.747 2.55301C261.006 2.90922 261.257 3.2452 261.496 3.58523C261.577 3.70261 261.645 3.73905 261.771 3.64594C261.937 3.52855 262.111 3.42736 262.281 3.31806C262.471 3.19663 262.665 3.07924 262.871 2.9497C263.09 3.29378 263.292 3.60951 263.495 3.92525C263.665 4.19646 263.665 4.19241 263.936 4.04264C264.267 3.85644 264.603 3.67428 264.959 3.47998C265.166 3.85239 265.372 4.20051 265.554 4.56077C265.639 4.72674 265.72 4.76722 265.89 4.67411C266.254 4.48791 266.627 4.32194 267.011 4.13979C267.205 4.54458 267.391 4.92508 267.565 5.30559C267.622 5.42702 267.679 5.45941 267.812 5.40274C268.152 5.25701 268.504 5.13557 268.844 4.98985C268.99 4.92508 269.046 4.96556 269.095 5.09914C269.224 5.44726 269.37 5.78729 269.5 6.13541C269.544 6.2528 269.601 6.29732 269.726 6.24875C269.896 6.18398 270.07 6.13136 270.244 6.07469C270.487 5.99373 270.726 5.91682 270.977 5.83586C271.114 6.25685 271.248 6.64949 271.365 7.05024C271.41 7.19191 271.466 7.24454 271.624 7.19596C271.948 7.09881 272.275 7.0219 272.603 6.94094C272.878 6.87213 272.878 6.87618 272.947 7.15548C273.044 7.53194 273.141 7.90839 273.243 8.29294C273.684 8.20794 274.1 8.12698 274.517 8.04197C274.651 8.01364 274.711 8.04602 274.732 8.19175C274.792 8.55606 274.873 8.92037 274.93 9.28468C274.954 9.42636 275.019 9.46684 275.148 9.4466C275.294 9.42231 275.44 9.40207 275.59 9.38588C275.873 9.34945 276.156 9.31707 276.439 9.28468C276.504 9.78662 276.569 10.2602 276.634 10.7419C277.139 10.7095 277.621 10.6812 278.106 10.6488C278.135 11.086 278.175 11.4867 278.187 11.8915C278.191 12.0818 278.264 12.1263 278.442 12.1182C278.851 12.1061 279.26 12.1142 279.689 12.1142C279.689 12.5635 279.697 12.9885 279.685 13.4136C279.681 13.5674 279.733 13.6079 279.879 13.6119C280.243 13.624 280.607 13.6524 280.967 13.6645C281.113 13.6686 281.166 13.7333 281.153 13.8791C281.125 14.2434 281.105 14.6036 281.081 14.9679C281.073 15.0934 281.093 15.1744 281.242 15.1865C281.59 15.2189 281.938 15.2675 282.286 15.308C282.545 15.3363 282.549 15.3404 282.513 15.6116C282.46 16.0042 282.416 16.3969 282.363 16.8017C282.8 16.8867 283.217 16.9757 283.634 17.0405C283.788 17.0648 283.808 17.1214 283.784 17.251C283.719 17.5869 283.67 17.927 283.593 18.2629C283.549 18.4532 283.565 18.5584 283.788 18.5989C284.12 18.6596 284.439 18.7608 284.767 18.8337C284.921 18.8701 284.977 18.9228 284.925 19.0928C284.82 19.4409 284.751 19.7971 284.654 20.1493C284.617 20.2788 284.637 20.3395 284.779 20.38C285.139 20.4853 285.495 20.6107 285.855 20.72C285.977 20.7565 286.013 20.8131 285.969 20.9386C285.851 21.2827 285.754 21.6349 285.629 21.9749C285.568 22.1449 285.617 22.2097 285.77 22.2663C286.155 22.408 286.531 22.5659 286.932 22.7237C286.895 22.833 286.867 22.9302 286.831 23.0233C286.713 23.3228 286.6 23.6264 286.475 23.926C286.418 24.0596 286.438 24.1243 286.58 24.185C286.968 24.3551 287.345 24.5453 287.741 24.7356C287.559 25.1242 287.393 25.5006 287.207 25.8649C287.13 26.0187 287.154 26.0997 287.312 26.1766C287.676 26.3628 288.032 26.5693 288.405 26.7757C288.368 26.8526 288.34 26.9093 288.308 26.97C288.154 27.2534 287.996 27.5367 287.842 27.8201C287.705 28.0791 287.705 28.0791 287.956 28.237C288.283 28.4434 288.611 28.6539 288.951 28.8685C288.741 29.2085 288.538 29.5283 288.34 29.8481C288.174 30.1152 288.174 30.1193 288.429 30.3095C288.737 30.5362 289.048 30.7548 289.352 30.9774C289.339 31.0139 289.335 31.026 289.327 31.0382C289.109 31.3458 288.886 31.6534 288.668 31.957C288.498 32.1959 288.498 32.1959 288.728 32.378C289.032 32.6209 289.331 32.8678 289.643 33.1228C289.327 33.5155 289.024 33.8879 288.716 34.2684C288.935 34.4748 289.129 34.6691 289.335 34.8553C289.489 34.993 289.651 35.1225 289.809 35.252C289.809 35.2642 289.809 35.2804 289.809 35.2925C289.469 35.6406 289.133 35.9928 288.781 36.3531C289.044 36.6324 289.283 36.8955 289.53 37.1505C289.615 37.2395 289.716 37.3165 289.809 37.3974C289.833 37.4258 289.833 37.4419 289.833 37.4541ZM223.386 36.0211C223.078 53.1033 236.646 68.2627 254.997 68.5704C271.915 68.8537 286.798 55.5887 287.47 37.6565C288.126 20.1452 274.505 5.17201 256.66 4.46767C238.993 3.77143 223.71 17.7003 223.386 36.0211Z" fill="white"/>
<path d="M255.126 67.9419C237.938 67.9583 223.844 53.7197 224.062 36.0799C224.272 19.0983 237.958 4.97006 255.32 5.06C272.445 5.14585 286.26 19.2659 286.219 36.6113C286.179 53.8914 272.263 67.9419 255.126 67.9419ZM285.577 36.223C285.447 19.0002 271.216 4.96597 253.761 5.71817C237.509 6.42131 223.933 20.3942 224.729 38.0094C225.464 54.2512 239.069 67.9542 256.399 67.2633C272.639 66.6256 285.726 52.988 285.577 36.223Z" fill="white"/>
<path d="M256.702 25.7203C256.657 25.9055 256.634 26.0726 256.571 26.2262C256.539 26.2985 256.44 26.3933 256.372 26.3933C255.107 26.4024 253.843 26.3978 252.578 26.3978C252.564 26.3978 252.546 26.3843 252.492 26.3662C252.56 26.0455 252.632 25.7158 252.704 25.3861C252.876 24.5596 253.052 23.733 253.224 22.9065C253.251 22.7755 253.305 22.6897 253.454 22.6897C254.651 22.6942 255.848 22.6897 257.045 22.6942C257.086 22.6942 257.126 22.7123 257.199 22.7303C257.144 22.9833 257.104 23.2317 257.031 23.4711C257.013 23.5253 256.887 23.5749 256.81 23.5749C256.16 23.584 255.509 23.5795 254.863 23.584C254.48 23.584 254.466 23.5975 254.461 24.0492C255.112 24.0492 255.762 24.0492 256.449 24.0492C256.381 24.3699 256.327 24.6499 256.259 24.9661C255.902 24.9661 255.545 24.9661 255.189 24.9661C254.999 24.9661 254.814 24.9661 254.624 24.9661C254.195 24.9661 254.195 24.9661 254.15 25.4403C254.222 25.4448 254.29 25.4584 254.362 25.4584C255.012 25.4584 255.663 25.4629 256.309 25.4584C256.476 25.4584 256.67 25.5261 256.792 25.3229C256.81 25.2913 256.905 25.2958 256.964 25.2958C257.397 25.2913 257.835 25.2913 258.269 25.2958C258.346 25.2958 258.441 25.3229 258.49 25.3726C258.712 25.6074 259.335 25.6978 259.597 25.5081C259.66 25.4584 259.732 25.3409 259.714 25.2777C259.692 25.2009 259.592 25.1016 259.511 25.088C259.136 25.0157 258.752 24.9796 258.373 24.9164C258.12 24.8757 257.867 24.8306 257.628 24.7402C257.131 24.5505 256.968 24.1169 257.158 23.6156C257.37 23.051 257.822 22.8071 258.364 22.7032C259.123 22.5632 259.895 22.5406 260.654 22.7123C260.956 22.7845 261.236 22.9562 261.548 23.0917C261.575 23.0013 261.616 22.8613 261.656 22.7123C263.025 22.7123 264.385 22.7123 265.744 22.7123C265.753 22.7619 265.762 22.7845 265.758 22.8071C265.694 23.0691 265.703 23.4304 265.536 23.5704C265.369 23.7059 265.017 23.6246 264.746 23.6246C264.222 23.6291 264.226 23.6246 264.123 24.1305C263.978 24.8306 263.824 25.5306 263.666 26.2307C263.653 26.2894 263.59 26.3843 263.549 26.3888C263.115 26.4023 262.682 26.3978 262.212 26.3978C262.406 25.4674 262.596 24.5686 262.795 23.6337C262.406 23.6337 262.018 23.5343 261.72 23.6562C261.182 23.8776 260.654 23.7104 260.13 23.7692C260.062 23.7782 259.967 23.7059 259.918 23.6472C259.732 23.4078 259.005 23.3265 258.779 23.5343C258.639 23.6608 258.671 23.8279 258.874 23.8685C259.267 23.9498 259.665 23.995 260.058 24.0673C260.383 24.1305 260.712 24.1847 261.024 24.2886C261.336 24.3924 261.48 24.6499 261.48 24.9886C261.48 25.5803 261.092 26.0862 260.405 26.2985C259.511 26.5785 258.59 26.6056 257.673 26.4204C257.153 26.312 257.031 26.1991 256.702 25.7203Z" fill="white"/>
<path d="M274.75 26.402C274.899 25.6794 275.044 24.9973 275.188 24.3153C275.287 23.8501 275.391 23.3804 275.482 22.9152C275.513 22.7571 275.577 22.6803 275.753 22.6848C276.173 22.6939 276.588 22.6939 277.008 22.6848C277.166 22.6803 277.257 22.7345 277.324 22.8836C277.564 23.421 277.812 23.954 278.061 24.487C278.101 24.5728 278.142 24.6541 278.223 24.8122C278.287 24.5502 278.341 24.365 278.381 24.1753C278.472 23.7508 278.553 23.3217 278.657 22.9016C278.675 22.8203 278.788 22.7074 278.865 22.7074C279.253 22.6893 279.646 22.6984 280.075 22.6984C279.998 23.0778 279.926 23.4346 279.854 23.7869C279.691 24.5638 279.515 25.3361 279.361 26.113C279.316 26.3433 279.221 26.4246 278.991 26.4111C278.616 26.393 278.241 26.402 277.866 26.4065C277.731 26.4111 277.659 26.3614 277.595 26.2349C277.279 25.5935 276.95 24.9612 276.588 24.2521C276.543 24.4102 276.511 24.5005 276.493 24.5909C276.376 25.1238 276.259 25.6568 276.155 26.1897C276.123 26.3614 276.046 26.4111 275.879 26.4065C275.504 26.3975 275.138 26.402 274.75 26.402Z" fill="white"/>
<path d="M270.106 24.0402C269.893 24.248 269.685 24.4557 269.464 24.6725C269.758 24.8351 269.722 25.1242 269.676 25.4223C269.631 25.7384 269.604 26.0591 269.564 26.4024C269.134 26.4024 268.665 26.4069 268.199 26.3934C268.15 26.3934 268.064 26.2759 268.064 26.2172C268.069 26.023 268.109 25.8288 268.132 25.6346C268.159 25.4223 268.055 25.2958 267.852 25.2868C267.545 25.2687 267.237 25.2687 266.93 25.2823C266.876 25.2823 266.799 25.3816 266.781 25.4449C266.714 25.6933 266.664 25.9417 266.614 26.1946C266.587 26.3437 266.524 26.4114 266.361 26.4069C265.968 26.3979 265.58 26.4024 265.137 26.4024C265.205 26.0546 265.259 25.7384 265.322 25.4268C265.499 24.5912 265.688 23.7602 265.855 22.9246C265.891 22.7394 265.973 22.6852 266.144 22.6897C267.201 22.7033 268.263 22.7123 269.32 22.7213C269.414 22.7213 269.505 22.7394 269.6 22.7575C270.078 22.8659 270.282 23.1775 270.196 23.6608C270.173 23.7963 270.128 23.9228 270.092 24.0583C270.101 24.0583 270.106 24.0402 270.106 24.0402ZM267.039 24.2796C267.459 24.2796 267.834 24.2841 268.213 24.2751C268.267 24.2751 268.344 24.248 268.371 24.2073C268.443 24.0944 268.543 23.9589 268.529 23.846C268.52 23.7647 268.344 23.6518 268.24 23.6427C267.928 23.6156 267.612 23.6292 267.296 23.6337C267.246 23.6337 267.17 23.6743 267.161 23.7105C267.111 23.8957 267.079 24.0854 267.039 24.2796Z" fill="white"/>
<path d="M252.057 24.6501C252.4 24.8578 252.337 25.1514 252.305 25.445C252.269 25.7476 252.238 26.0457 252.201 26.4025C251.985 26.4025 251.705 26.4025 251.429 26.4025C251.316 26.4025 251.208 26.4025 251.095 26.4025C250.652 26.4025 250.639 26.3845 250.72 25.9373C250.828 25.3547 250.765 25.2734 250.178 25.2689C250.015 25.2689 249.853 25.2824 249.69 25.2643C249.491 25.2418 249.419 25.3321 249.392 25.5128C249.351 25.7567 249.297 26.0006 249.239 26.2399C249.225 26.2987 249.153 26.389 249.108 26.3935C248.674 26.4071 248.24 26.4025 247.766 26.4025C247.87 25.9102 247.965 25.454 248.06 24.9979C248.204 24.3068 248.353 23.6112 248.498 22.9202C248.525 22.7937 248.543 22.6944 248.71 22.6989C249.776 22.7124 250.846 22.7079 251.912 22.726C252.296 22.735 252.703 22.7892 252.816 23.2409C252.933 23.7016 252.748 24.0945 252.4 24.4062C252.305 24.4875 252.197 24.5507 252.057 24.6501ZM249.663 24.3384C250.115 24.3113 250.521 24.3023 250.919 24.2526C251.122 24.2255 251.221 24.0268 251.176 23.8461C251.154 23.7513 250.973 23.6519 250.856 23.6429C250.562 23.6112 250.259 23.6248 249.961 23.6383C249.898 23.6383 249.803 23.688 249.785 23.7377C249.735 23.9048 249.713 24.09 249.663 24.3384Z" fill="white"/>
<path d="M270.107 24.0401L270.098 24.0582C270.699 22.8522 271.778 22.5812 272.993 22.6038C273.341 22.6128 273.698 22.649 274.028 22.7483C274.831 22.9877 275.175 23.602 275.012 24.4285C274.791 25.5532 274.131 26.2352 272.993 26.4068C272.429 26.4926 271.832 26.5062 271.268 26.4294C270.134 26.2668 269.701 25.5171 270.012 24.4105C270.044 24.2885 270.075 24.1621 270.107 24.0401ZM272.203 25.5577C273.002 25.5577 273.58 24.8396 273.409 24.0491C273.359 23.8278 273.224 23.6697 273.002 23.593C272.293 23.3445 271.561 23.8188 271.453 24.5957C271.363 25.2506 271.598 25.5577 272.203 25.5577Z" fill="white"/>
<path d="M246.274 54.595C245.967 54.595 245.696 54.6086 245.429 54.586C245.357 54.5815 245.267 54.4731 245.231 54.3963C245.082 54.044 244.937 53.6872 244.815 53.3213C244.761 53.1678 244.689 53.1045 244.522 53.109C243.776 53.1181 243.036 53.1181 242.29 53.109C242.11 53.1045 242.033 53.1813 241.979 53.3394C241.848 53.7098 241.694 54.0711 241.563 54.4415C241.518 54.5679 241.45 54.6086 241.319 54.6041C241.075 54.595 240.827 54.5995 240.547 54.5995C240.66 54.2969 240.759 54.0259 240.863 53.7594C241.491 52.1651 242.123 50.5707 242.751 48.9718C242.805 48.8408 242.868 48.764 243.031 48.7685C243.338 48.7821 243.713 48.6692 243.934 48.8092C244.151 48.9447 244.219 49.3241 244.332 49.6086C244.955 51.1804 245.574 52.7522 246.193 54.324C246.22 54.3963 246.238 54.4776 246.274 54.595ZM244.377 52.2057C244.052 51.3701 243.745 50.5662 243.433 49.7667C243.41 49.7667 243.388 49.7712 243.365 49.7712C243.054 50.5752 242.742 51.3746 242.421 52.2057C243.09 52.2057 243.704 52.2057 244.377 52.2057Z" fill="white"/>
<path d="M252.525 44.1033C252.024 44.5775 251.437 44.713 250.791 44.5595C250.366 44.4601 250.032 44.2117 249.779 43.8639C249.192 43.0509 249.251 41.8359 249.915 41.1133C250.579 40.3861 251.414 40.35 252.516 41.0094C252.53 41.0004 252.548 40.9868 252.552 40.9778C252.584 40.6255 252.584 40.6255 252.95 40.6255C253.085 40.6255 253.221 40.6255 253.388 40.6255C253.397 40.7158 253.415 40.7971 253.415 40.8739C253.415 42.0256 253.402 43.1819 253.415 44.3336C253.424 45.4899 252.692 46.2667 251.478 46.3345C250.904 46.3661 250.357 46.2577 249.838 46.0138C249.675 45.937 249.621 45.8467 249.716 45.6796C249.802 45.526 249.87 45.3589 249.951 45.1873C250.43 45.4312 250.908 45.5938 251.437 45.5622C252.218 45.5034 252.67 44.9389 252.525 44.1033ZM251.437 43.8097C252.137 43.8142 252.629 43.3129 252.629 42.5902C252.634 41.8495 252.15 41.3301 251.446 41.3256C250.777 41.321 250.276 41.8269 250.272 42.5134C250.263 43.2948 250.719 43.8007 251.437 43.8097Z" fill="white"/>
<path d="M251.452 53.5566C251.655 52.8972 251.863 52.2378 252.066 51.5829C252.147 51.3209 252.215 51.0544 252.314 50.8015C252.346 50.7247 252.459 50.6389 252.54 50.6299C252.757 50.6073 252.983 50.6208 253.245 50.6208C253.15 50.9325 253.069 51.2125 252.974 51.4925C252.667 52.423 252.346 53.3534 252.048 54.2838C251.976 54.5051 251.885 54.609 251.623 54.6045C250.91 54.5819 250.914 54.5955 250.688 53.9044C250.467 53.2134 250.232 52.5269 250.006 51.8403C249.988 51.7861 249.961 51.7364 249.912 51.628C249.83 51.8629 249.762 52.0436 249.704 52.2288C249.469 52.9424 249.23 53.6515 248.999 54.3696C248.945 54.5413 248.859 54.6045 248.669 54.6045C247.906 54.6 247.911 54.6045 247.671 53.8819C247.346 52.8837 247.012 51.89 246.682 50.8918C246.655 50.815 246.637 50.7337 246.61 50.6208C246.885 50.6208 247.134 50.6073 247.373 50.6299C247.441 50.6344 247.531 50.7473 247.554 50.8241C247.82 51.6506 248.078 52.4862 248.335 53.3173C248.358 53.3941 248.389 53.4708 248.48 53.5476C248.647 53.0327 248.814 52.5223 248.986 52.0074C249.117 51.61 249.248 51.2125 249.37 50.815C249.415 50.6705 249.491 50.6208 249.645 50.6163C250.386 50.6028 250.39 50.5937 250.625 51.2893C250.865 51.9984 251.099 52.712 251.334 53.4257C251.348 53.4708 251.37 53.5115 251.388 53.5566C251.411 53.5612 251.434 53.5566 251.452 53.5566Z" fill="white"/>
<path d="M247.986 24.2433C247.498 24.2433 247.024 24.2478 246.545 24.2343C246.487 24.2343 246.396 24.1394 246.383 24.0762C246.297 23.7194 246.189 23.5658 245.827 23.5568C245.57 23.5477 245.276 23.6065 245.05 23.7239C244.617 23.9542 244.373 24.6453 244.531 25.1105C244.576 25.2415 244.685 25.386 244.802 25.4583C245.186 25.6931 245.832 25.5441 246.089 25.1647C246.193 25.0111 246.306 24.9524 246.487 24.9569C246.898 24.9705 247.309 24.9614 247.715 24.966C247.738 24.966 247.765 24.975 247.842 24.9931C247.769 25.1421 247.72 25.2912 247.634 25.4176C247.295 25.9235 246.812 26.2261 246.225 26.3616C245.407 26.5513 244.585 26.592 243.781 26.2939C243.153 26.059 242.846 25.526 242.932 24.8576C243.113 23.5026 243.957 22.7122 245.339 22.6218C245.981 22.5767 246.622 22.5586 247.232 22.8115C247.846 23.0599 248.117 23.5568 247.986 24.2433Z" fill="white"/>
<path d="M265.625 51.0948C265.625 50.9277 265.625 50.8373 265.625 50.7515C265.625 50.1192 265.629 49.4869 265.62 48.8545C265.62 48.6874 265.652 48.6151 265.846 48.6106C266.479 48.6061 266.479 48.6016 266.479 49.2384C266.479 50.896 266.479 52.5491 266.479 54.2067C266.479 54.3242 266.479 54.4416 266.479 54.5771C266.18 54.5771 265.914 54.5771 265.638 54.5771C265.629 54.4416 265.62 54.3242 265.607 54.148C265.105 54.6674 264.523 54.7894 263.877 54.6313C263.412 54.5184 263.046 54.2564 262.761 53.868C262.192 53.0866 262.274 51.822 262.947 51.1174C263.303 50.7425 263.75 50.5483 264.265 50.5166C264.78 50.4895 265.218 50.6612 265.625 51.0948ZM265.675 52.5988C265.666 51.831 265.169 51.3161 264.446 51.3251C263.764 51.3342 263.254 51.8852 263.263 52.6033C263.272 53.3621 263.782 53.9041 264.491 53.8951C265.191 53.8861 265.684 53.3486 265.675 52.5988Z" fill="white"/>
<path d="M257.039 51.0679C257.084 50.6207 257.084 50.6207 257.472 50.6207C257.608 50.6207 257.743 50.6207 257.892 50.6207C257.892 51.9486 257.892 53.2494 257.892 54.5728C257.63 54.5728 257.364 54.5728 257.075 54.5728C257.066 54.4554 257.052 54.3289 257.039 54.1573C256.565 54.636 256.023 54.776 255.404 54.6586C254.943 54.5683 254.555 54.3379 254.266 53.9721C253.633 53.1817 253.674 51.9035 254.347 51.1582C254.704 50.7653 255.151 50.5575 255.675 50.5259C256.194 50.4898 256.646 50.6523 257.039 51.0679ZM257.111 52.6171C257.116 51.8718 256.614 51.3298 255.919 51.3208C255.219 51.3163 254.69 51.8583 254.695 52.5855C254.699 53.3488 255.201 53.8953 255.901 53.8953C256.596 53.8998 257.107 53.3578 257.111 52.6171Z" fill="white"/>
<path d="M261.113 41.0817C261.122 40.9371 261.131 40.8784 261.126 40.8197C261.117 40.6797 261.167 40.6165 261.316 40.621C262.12 40.639 261.971 40.4945 261.98 41.2398C261.989 42.256 261.98 43.2722 261.98 44.2885C261.98 44.3788 261.98 44.4737 261.98 44.5821C261.695 44.5821 261.433 44.5821 261.144 44.5821C261.131 44.4601 261.122 44.3382 261.104 44.162C260.602 44.6588 260.038 44.7943 259.396 44.6363C258.94 44.5233 258.57 44.2749 258.294 43.9C257.716 43.1232 257.766 41.8992 258.394 41.1855C258.742 40.7881 259.189 40.5713 259.708 40.5261C260.232 40.481 260.697 40.6345 261.113 41.0817ZM261.176 42.5947C261.167 41.845 260.67 41.3165 259.966 41.3256C259.252 41.3346 258.764 41.8676 258.773 42.6399C258.778 43.3806 259.297 43.9091 259.997 43.9C260.693 43.8865 261.185 43.3445 261.176 42.5947Z" fill="white"/>
<path d="M248.36 44.1256C247.71 44.7309 246.536 44.8709 245.741 44.4599C245.018 44.085 244.634 43.2313 244.729 42.328C244.901 40.7427 246.378 40.2368 247.435 40.6704C248.275 41.0137 248.681 42.0118 248.523 42.9107C247.566 42.9107 246.608 42.9107 245.646 42.9107C245.637 43.9134 246.662 44.1979 247.958 43.5656C248.089 43.7462 248.22 43.9314 248.36 44.1256ZM245.628 42.2467C246.314 42.2467 246.987 42.2467 247.656 42.2467C247.647 41.7183 247.258 41.3072 246.753 41.2711C246.152 41.235 245.732 41.5918 245.628 42.2467Z" fill="white"/>
<path d="M269.113 42.6263C269.104 41.452 270.017 40.5306 271.196 40.5216C272.451 40.5125 273.391 41.3978 273.391 42.5947C273.395 43.7826 272.483 44.6859 271.277 44.6995C270.053 44.713 269.122 43.8232 269.113 42.6263ZM270.008 42.5992C270.003 43.3535 270.518 43.8955 271.245 43.9C271.954 43.9045 272.501 43.358 272.505 42.6353C272.51 41.872 271.995 41.33 271.272 41.3255C270.527 41.321 270.012 41.8404 270.008 42.5992Z" fill="white"/>
<path d="M275.361 41.0409C276.025 40.4719 276.703 40.3589 277.38 40.7157C277.873 40.9777 278.148 41.3978 278.162 41.9488C278.184 42.7618 278.166 43.5703 278.171 44.3833C278.171 44.5504 278.117 44.6001 277.949 44.6046C277.326 44.6136 277.326 44.6181 277.326 43.9948C277.326 43.4303 277.331 42.8657 277.313 42.3056C277.295 41.6868 276.947 41.3436 276.382 41.3436C275.772 41.3436 275.352 41.732 275.339 42.3327C275.325 43.0057 275.325 43.6832 275.334 44.3562C275.334 44.5414 275.289 44.6091 275.09 44.6091C274.485 44.6046 274.485 44.6136 274.485 43.9994C274.485 42.965 274.49 41.9307 274.481 40.9009C274.476 40.6841 274.544 40.6028 274.756 40.6299C274.788 40.6345 274.824 40.6299 274.86 40.6299C275.289 40.6209 275.289 40.6209 275.361 41.0409Z" fill="white"/>
<path d="M236.203 44.6001C236.203 43.2587 236.203 41.9579 236.203 40.6254C236.343 40.6254 236.47 40.6254 236.592 40.6254C236.989 40.6254 236.989 40.6254 237.057 41.0184C237.111 40.9823 237.156 40.9552 237.197 40.919C237.915 40.2822 239.099 40.4177 239.622 41.2216C239.749 41.4159 239.844 41.6598 239.848 41.8856C239.875 42.7573 239.857 43.6245 239.857 44.4962C239.857 44.5188 239.844 44.5459 239.83 44.6001C239.618 44.6001 239.397 44.5956 239.18 44.6001C239.008 44.6046 239.022 44.4827 239.022 44.3698C239.022 43.7871 239.022 43.209 239.022 42.6263C239.022 42.4999 239.017 42.3689 239.013 42.2424C238.981 41.6778 238.633 41.3391 238.082 41.3346C237.518 41.33 237.066 41.714 237.048 42.2514C237.025 42.9425 237.03 43.6335 237.039 44.3246C237.043 44.5369 236.98 44.6182 236.763 44.6001C236.587 44.5866 236.407 44.6001 236.203 44.6001Z" fill="white"/>
<path d="M270.923 50.9548C270.814 51.1626 270.71 51.3568 270.607 51.551C270.281 51.4607 269.97 51.3432 269.649 51.2935C269.414 51.2574 269.157 51.289 268.917 51.3387C268.732 51.3794 268.583 51.5194 268.588 51.7407C268.588 51.9665 268.759 52.0478 268.935 52.093C269.139 52.1472 269.355 52.1653 269.563 52.2104C269.843 52.2737 270.137 52.3188 270.399 52.4363C271.185 52.7931 271.28 53.7912 270.584 54.3152C270.159 54.6359 269.663 54.6991 269.152 54.6901C268.579 54.6765 268.041 54.541 267.54 54.1887C267.653 54.0035 267.743 53.8229 267.87 53.6693C267.901 53.6286 268.05 53.6377 268.118 53.6738C268.619 53.9584 269.152 54.008 269.703 53.8996C269.803 53.8816 269.897 53.8364 269.983 53.7822C270.241 53.6151 270.25 53.2899 269.97 53.1679C269.703 53.055 269.396 53.0279 269.112 52.9557C268.863 52.8969 268.606 52.8518 268.371 52.7569C267.978 52.5989 267.734 52.3007 267.702 51.8626C267.671 51.42 267.833 51.0587 268.208 50.8057C268.863 50.3676 270.254 50.4354 270.923 50.9548Z" fill="white"/>
<path d="M266.054 40.6571C266.054 40.901 266.054 41.1404 266.054 41.4069C265.652 41.4069 265.263 41.4069 264.87 41.4069C264.541 41.4069 264.541 41.4024 264.536 41.7411C264.536 42.1928 264.532 42.6444 264.536 43.0961C264.541 43.7601 264.902 44.022 265.543 43.8233C265.679 43.7781 265.81 43.7194 265.986 43.6517C266.076 43.8323 266.18 44.013 266.262 44.2027C266.28 44.2433 266.23 44.3517 266.18 44.3788C265.783 44.6227 265.349 44.7402 264.884 44.6769C264.085 44.5685 263.701 44.1033 263.683 43.2271C263.674 42.7257 263.683 42.2199 263.683 41.7185C263.683 41.6282 263.674 41.5334 263.669 41.4114C263.412 41.4114 263.168 41.4114 262.915 41.4114C262.915 41.1404 262.915 40.901 262.915 40.63C263.159 40.63 263.403 40.63 263.687 40.63C263.687 40.2777 263.696 39.957 263.683 39.6364C263.678 39.4647 263.728 39.397 263.913 39.397C264.676 39.4105 264.532 39.3112 264.541 40.0112C264.55 40.621 264.541 40.621 265.141 40.621C265.422 40.621 265.706 40.6255 265.986 40.63C266 40.63 266.018 40.6436 266.054 40.6571Z" fill="white"/>
<path d="M243.895 41.4067C243.466 41.4067 243.051 41.4157 242.635 41.4022C242.45 41.3977 242.373 41.4473 242.378 41.6416C242.391 42.1384 242.378 42.6307 242.387 43.1275C242.396 43.7599 242.771 44.0218 243.376 43.8367C243.385 43.8321 243.394 43.8321 243.399 43.8276C243.891 43.6695 243.922 43.6786 244.094 44.1709C244.112 44.2296 244.085 44.3425 244.04 44.3787C243.597 44.74 242.626 44.7942 242.138 44.5006C241.673 44.2206 241.556 43.7644 241.538 43.2721C241.52 42.7617 241.533 42.2468 241.533 41.7364C241.533 41.6461 241.533 41.5512 241.533 41.4112C241.316 41.4112 241.122 41.4248 240.932 41.4022C240.865 41.3931 240.806 41.2938 240.743 41.2351C240.738 41.2305 240.743 41.217 240.743 41.208C240.693 40.6298 240.693 40.6298 241.262 40.6208C241.339 40.6208 241.416 40.6163 241.538 40.6072C241.538 40.282 241.547 39.9614 241.533 39.6407C241.524 39.4465 241.596 39.3968 241.782 39.3968C242.382 39.3923 242.382 39.3877 242.382 39.9839C242.382 40.6208 242.382 40.6208 243.006 40.6208C243.295 40.6208 243.584 40.6208 243.895 40.6208C243.895 40.8828 243.895 41.1221 243.895 41.4067Z" fill="white"/>
<path d="M233.778 41.6594C233.778 40.7877 233.782 39.9205 233.773 39.0488C233.773 38.85 233.81 38.7642 234.04 38.7687C234.686 38.7778 234.686 38.7687 234.686 39.4101C234.686 41.0496 234.681 42.6846 234.69 44.3242C234.69 44.5274 234.645 44.6087 234.424 44.6042C233.782 44.5952 233.782 44.6042 233.782 43.9628C233.778 43.195 233.778 42.4272 233.778 41.6594Z" fill="white"/>
<path d="M255.417 32.4458C255.209 32.9652 254.997 33.4846 254.789 34.004C254.749 34.1079 254.695 34.2073 254.668 34.3112C254.618 34.5144 254.5 34.5731 254.297 34.5686C254.116 34.5686 254.026 34.5144 253.958 34.3428C253.751 33.8008 253.525 33.2678 253.303 32.7303C253.267 32.64 253.222 32.5497 253.132 32.4639C253.123 32.5271 253.105 32.5858 253.105 32.649C253.1 33.3085 253.096 33.9634 253.105 34.6228C253.109 34.8125 253.046 34.8803 252.856 34.8758C252.676 34.8758 252.621 34.808 252.626 34.6319C252.631 33.7421 252.635 32.8568 252.626 31.967C252.626 31.7909 252.694 31.7548 252.852 31.7548C253.353 31.7548 253.358 31.7457 253.547 32.1974C253.773 32.7303 253.99 33.2723 254.211 33.8053C254.229 33.8505 254.256 33.8911 254.302 33.9815C254.356 33.864 254.401 33.7872 254.433 33.7059C254.654 33.1685 254.884 32.6355 255.079 32.0935C255.173 31.8361 255.304 31.7367 255.58 31.7502C255.968 31.7683 255.973 31.7548 255.973 32.1432C255.973 32.9471 255.973 33.7466 255.973 34.5506C255.973 34.7132 256 34.8712 255.742 34.8712C255.49 34.8758 255.499 34.7357 255.499 34.5596C255.503 33.9453 255.499 33.3311 255.503 32.7168C255.503 32.6265 255.503 32.5361 255.503 32.4503C255.48 32.4548 255.449 32.4503 255.417 32.4458Z" fill="white"/>
<path d="M236.356 23.9362C236.094 23.9723 235.882 23.9768 235.683 24.04C235.453 24.1123 235.209 24.2026 235.014 24.3427C234.567 24.6724 234.585 25.1692 235.032 25.4944C235.588 25.8919 236.229 26.0635 236.893 26.1629C238.366 26.3797 239.798 26.1719 241.211 25.7473C241.297 25.7202 241.387 25.7022 241.536 25.6615C241.279 26.1177 240.936 26.3842 240.538 26.5829C239.676 27.0165 238.759 27.0797 237.819 26.9668C236.726 26.8358 235.696 26.5242 234.82 25.8377C233.958 25.1602 234.134 24.4962 235.078 24.0581C235.43 23.8955 235.967 23.8549 236.356 23.9362Z" fill="white"/>
<path d="M231.941 23.2814C232.099 23.1053 232.212 22.9562 232.352 22.8298C232.894 22.3329 233.563 22.089 234.281 22.0303C235.803 21.8993 237.239 22.1839 238.522 23.0556C238.73 23.1956 238.911 23.3898 239.064 23.5931C239.322 23.9409 239.258 24.3067 238.942 24.5958C238.432 25.0655 237.822 25.1423 237.167 25.07C237.42 25.0249 237.673 24.9978 237.921 24.93C238.093 24.8849 238.26 24.8081 238.409 24.7132C238.915 24.388 238.929 23.846 238.441 23.4937C237.94 23.1324 237.357 22.9608 236.756 22.8614C235.243 22.613 233.766 22.8027 232.312 23.2498C232.24 23.2724 232.163 23.2905 232.09 23.3131C232.068 23.3131 232.05 23.304 231.941 23.2814Z" fill="white"/>
<path d="M237.488 24.0358C236.593 23.5074 235.663 23.5661 234.733 23.9094C234.159 24.1216 233.838 24.5552 233.924 25.0656C233.965 25.3185 234.118 25.576 234.285 25.7747C234.71 26.2761 235.293 26.5516 235.893 26.7865C236.218 26.9129 236.553 27.0123 236.887 27.1252C236.955 27.1478 237.022 27.1749 237.158 27.2291C237.009 27.2697 236.932 27.3014 236.851 27.3059C235.889 27.351 234.94 27.333 234.041 26.922C233.283 26.5742 232.881 25.9238 233.025 25.2192C233.161 24.5462 233.612 24.1171 234.195 23.8145C235.022 23.3899 235.902 23.3628 236.788 23.5706C237.054 23.6338 237.289 23.8235 237.537 23.959C237.524 23.9816 237.506 24.0087 237.488 24.0358Z" fill="white"/>
<path d="M241.134 22.9473C241.559 23.1641 241.915 23.4441 242.119 23.8777C242.281 24.2255 242.168 24.6094 241.839 24.912C241.4 25.314 240.858 25.5263 240.298 25.6889C239.097 26.0322 237.873 26.1541 236.631 25.9418C236.179 25.865 235.755 25.7115 235.42 25.3772C235.059 25.0159 235.113 24.6546 235.524 24.4061C235.502 24.5688 235.411 24.7765 235.461 24.9391C235.556 25.2372 235.836 25.3908 236.116 25.5127C236.979 25.8786 237.855 25.7928 238.727 25.5805C239.332 25.436 239.883 25.174 240.353 24.7584C240.822 24.3429 241.066 23.8325 241.062 23.2047C241.062 23.146 241.066 23.0873 241.075 23.0286C241.089 23.015 241.102 23.0015 241.134 22.9473Z" fill="white"/>
<path d="M235.961 24.948C236.977 25.5261 237.98 25.4584 238.969 24.9841C239.628 24.668 239.768 23.9453 239.321 23.3672C238.91 22.8342 238.346 22.518 237.741 22.2741C237.298 22.098 236.846 21.9535 236.354 21.7818C236.444 21.7502 236.503 21.7141 236.557 21.7096C237.474 21.6599 238.386 21.6463 239.258 22.0031C239.425 22.0709 239.588 22.1477 239.737 22.247C240.636 22.8297 240.744 23.9092 239.981 24.677C239.33 25.3319 238.522 25.5577 237.623 25.5442C237.063 25.5352 236.512 25.49 236.06 25.097C236.033 25.0745 236.006 25.0519 235.984 25.0293C235.974 25.0157 235.974 24.9977 235.961 24.948Z" fill="white"/>
<path d="M237.888 24.6092C238.155 24.1892 238.091 23.9272 237.658 23.6426C237.197 23.34 236.678 23.2407 236.145 23.2407C235.309 23.2407 234.501 23.3987 233.755 23.8052C232.924 24.2569 232.391 24.8983 232.396 25.8964C232.396 25.9281 232.387 25.9642 232.382 25.9958C232.382 26.0048 232.373 26.0094 232.369 26.0184C231.922 25.9461 231.298 25.2641 231.289 24.817C231.28 24.4511 231.488 24.1892 231.764 23.9814C232.346 23.5342 233.028 23.3174 233.733 23.1684C234.812 22.938 235.892 22.8567 236.985 23.0871C237.446 23.1819 237.866 23.3581 238.168 23.742C238.412 24.0672 238.286 24.4602 237.888 24.6092Z" fill="white"/>
<path d="M255.659 44.6C255.415 44.6 255.211 44.5955 255.008 44.6C254.85 44.6045 254.8 44.5368 254.805 44.3877C254.809 43.8864 254.805 43.3805 254.805 42.8791C254.805 42.2242 254.805 41.5648 254.805 40.9099C254.805 40.8286 254.814 40.7428 254.819 40.6253C255.053 40.6253 255.275 40.6163 255.491 40.6344C255.546 40.6389 255.609 40.7202 255.641 40.7789C255.668 40.8331 255.654 40.9054 255.663 41.0273C256.183 40.4898 256.774 40.4311 257.465 40.6208C257.402 40.8963 257.343 41.1628 257.28 41.4383C257.113 41.4067 256.982 41.3796 256.846 41.357C256.164 41.2396 255.668 41.6416 255.659 42.3417C255.65 42.9875 255.659 43.6379 255.659 44.2883C255.659 44.3787 255.659 44.469 255.659 44.6Z" fill="white"/>
<path d="M260.178 51.018C260.634 50.5257 261.172 50.4444 261.772 50.5664C261.921 50.598 261.989 50.6522 261.935 50.8058C261.926 50.8283 261.926 50.8554 261.917 50.8825C261.867 51.0542 261.867 51.28 261.754 51.3794C261.668 51.4516 261.438 51.3613 261.276 51.3432C260.634 51.271 260.178 51.6594 260.169 52.3143C260.155 52.9873 260.16 53.6648 260.164 54.3378C260.164 54.5275 260.119 54.6088 259.907 54.6043C259.306 54.5952 259.306 54.6043 259.306 54.0216C259.306 52.9783 259.311 51.9394 259.302 50.8961C259.302 50.6883 259.356 50.589 259.573 50.6206C259.613 50.6251 259.659 50.6206 259.699 50.6206C260.088 50.6206 260.088 50.6206 260.178 51.018Z" fill="white"/>
<path d="M256.906 31.7637C257.353 31.7637 257.823 31.7637 258.288 31.7637C258.432 31.7637 258.577 31.7637 258.722 31.7637C259.119 31.7637 259.119 31.7637 259.074 32.2063C258.844 32.2063 258.609 32.2063 258.374 32.2063C258.098 32.2063 257.827 32.2063 257.552 32.2063C257.407 32.2063 257.335 32.2605 257.339 32.4186C257.348 32.6309 257.344 32.8432 257.344 33.078C257.913 33.078 258.455 33.078 258.993 33.078C259.092 33.5071 259.074 33.5297 258.676 33.5297C258.311 33.5297 257.94 33.5342 257.574 33.5297C257.403 33.5252 257.335 33.5794 257.335 33.76C257.33 34.4285 257.321 34.4285 257.999 34.4285C258.315 34.4285 258.631 34.4375 258.947 34.433C259.101 34.4285 259.133 34.5053 259.128 34.6363C259.124 34.7627 259.133 34.8757 258.952 34.8757C258.311 34.8711 257.669 34.8757 257.032 34.8621C256.974 34.8621 256.865 34.7627 256.861 34.7131C256.852 33.7555 256.856 32.8025 256.861 31.845C256.865 31.8314 256.879 31.8134 256.906 31.7637Z" fill="white"/>
<path d="M251.799 31.7861C251.799 31.9307 251.799 32.0571 251.799 32.2107C251.312 32.2107 250.833 32.2197 250.359 32.2062C250.128 32.2017 250.029 32.2694 250.051 32.5088C250.069 32.6849 250.056 32.8656 250.056 33.0734C250.616 33.0734 251.158 33.0734 251.732 33.0734C251.741 33.2269 251.745 33.3579 251.754 33.5341C251.325 33.5341 250.919 33.5341 250.512 33.5341C249.957 33.5341 250.056 33.4889 250.056 33.9948C250.056 34.4329 250.056 34.4329 250.508 34.4329C250.864 34.4329 251.226 34.4374 251.583 34.4329C251.75 34.4284 251.835 34.4735 251.835 34.6632C251.835 34.8349 251.759 34.88 251.601 34.88C250.995 34.8755 250.39 34.8755 249.785 34.88C249.654 34.88 249.577 34.8529 249.577 34.6949C249.582 33.7554 249.582 32.8159 249.582 31.8765C249.582 31.8539 249.595 31.8268 249.609 31.7861C250.331 31.7861 251.059 31.7861 251.799 31.7861Z" fill="white"/>
<path d="M259.591 34.8531C259.762 34.4104 259.93 33.9949 260.097 33.5748C260.313 33.0283 260.521 32.4773 260.752 31.9353C260.783 31.8585 260.91 31.7772 260.991 31.7727C261.154 31.7727 261.375 31.6778 261.465 31.9037C261.849 32.8612 262.224 33.8233 262.599 34.7853C262.603 34.7989 262.594 34.8169 262.59 34.835C262.192 34.9344 262.138 34.9027 262.003 34.5369C261.836 34.0762 261.836 34.0762 261.348 34.0762C261.09 34.0762 260.833 34.0852 260.58 34.0762C260.426 34.0717 260.336 34.1168 260.3 34.2704C260.277 34.3517 260.241 34.4285 260.21 34.5098C260.07 34.8937 260.07 34.8937 259.591 34.8531ZM261.646 33.6155C261.461 33.1503 261.298 32.7393 261.131 32.3237C261.108 32.3237 261.086 32.3237 261.063 32.3237C260.901 32.7438 260.738 33.1593 260.562 33.6155C260.946 33.6155 261.271 33.6155 261.646 33.6155Z" fill="white"/>
<path d="M267.176 44.5998C267.176 43.2628 267.176 41.9621 267.176 40.6387C267.451 40.6387 267.713 40.6387 267.998 40.6387C268.002 40.729 268.016 40.8103 268.016 40.8916C268.016 42.0343 268.011 43.1815 268.02 44.3243C268.02 44.5365 267.962 44.6178 267.745 44.5998C267.569 44.5862 267.388 44.5998 267.176 44.5998Z" fill="white"/>
<path d="M268.179 39.2433C268.174 39.573 267.903 39.835 267.564 39.8305C267.253 39.826 266.977 39.5459 266.973 39.2388C266.968 38.8955 267.244 38.6245 267.596 38.6335C267.935 38.6335 268.183 38.9 268.179 39.2433Z" fill="white"/>
</g>
<defs>
<clipPath id="clip0">
<rect width="57" height="63" fill="white" transform="translate(0 7)"/>
</clipPath>
</defs>
</svg>
